HIERARCHY
ROOT Hips
{
	OFFSET 0.000000 97.167313 0.000000
	CHANNELS 6 Xposition Yposition Zposition Xrotation Yrotation Zrotation
	JOINT Spine
	{
		OFFSET 0.000000 13.784798 0.064400
		CHANNELS 3 Xrotation Yrotation Zrotation
		JOINT Spine1
		{
			OFFSET 0.000000 12.037903 0.404700
			CHANNELS 3 Xrotation Yrotation Zrotation
			JOINT Spine2
			{
				OFFSET 0.000000 17.795601 0.420200
				CHANNELS 3 Xrotation Yrotation Zrotation
				JOINT Neck
				{
					OFFSET 0.000000 39.131302 11.954600
					CHANNELS 3 Xrotation Yrotation Zrotation
					JOINT Head
					{
						OFFSET 0.000000 14.456192 15.627699
						CHANNELS 3 Xrotation Yrotation Zrotation
						JOINT HeadTop_End
						{
							OFFSET 0.000000 15.703506 7.603401
							CHANNELS 3 Xrotation Yrotation Zrotation
							End Site
							{
								OFFSET 0.000000 17.447403 0.000000
							}
						}
					}
				}
				JOINT LeftShoulder
				{
					OFFSET 17.399500 24.608795 1.168800
					CHANNELS 3 Xrotation Yrotation Zrotation
					JOINT LeftArm
					{
						OFFSET 18.980635 5.765305 1.818600
						CHANNELS 3 Xrotation Yrotation Zrotation
						JOINT LeftForeArm
						{
							OFFSET 49.290169 0.000000 0.000000
							CHANNELS 3 Xrotation Yrotation Zrotation
							JOINT LeftHand
							{
								OFFSET 31.562012 0.000000 0.000000
								CHANNELS 3 Xrotation Yrotation Zrotation
								JOINT LeftHandThumb1
								{
									OFFSET 6.133995 -4.388519 7.076070
									CHANNELS 3 Xrotation Yrotation Zrotation
									JOINT LeftHandThumb2
									{
										OFFSET 6.037666 -3.485840 3.485847
										CHANNELS 3 Xrotation Yrotation Zrotation
										JOINT LeftHandThumb3
										{
											OFFSET 6.496506 -3.750763 3.750761
											CHANNELS 3 Xrotation Yrotation Zrotation
											JOINT LeftHandThumb4
											{
												OFFSET 5.616882 -3.242905 3.242910
												CHANNELS 3 Xrotation Yrotation Zrotation
												End Site
												{
													OFFSET -1.254608 7.132141 0.375429
												}
											}
										}
									}
								}
								JOINT LeftHandPinky1
								{
									OFFSET 18.920792 -0.453171 -11.426712
									CHANNELS 3 Xrotation Yrotation Zrotation
									JOINT LeftHandPinky2
									{
										OFFSET 4.919586 0.000000 0.000000
										CHANNELS 3 Xrotation Yrotation Zrotation
										JOINT LeftHandPinky3
										{
											OFFSET 5.233047 0.000000 0.000000
											CHANNELS 3 Xrotation Yrotation Zrotation
											JOINT LeftHandPinky4
											{
												OFFSET 5.571716 0.000000 0.000000
												CHANNELS 3 Xrotation Yrotation Zrotation
												End Site
												{
													OFFSET -3.459808 4.342407 -0.466164
												}
											}
										}
									}
								}
								JOINT LeftHandRing1
								{
									OFFSET 22.726120 -0.094986 -6.500475
									CHANNELS 3 Xrotation Yrotation Zrotation
									JOINT LeftHandRing2
									{
										OFFSET 6.408615 0.000000 0.000000
										CHANNELS 3 Xrotation Yrotation Zrotation
										JOINT LeftHandRing3
										{
											OFFSET 6.150223 0.000000 0.000000
											CHANNELS 3 Xrotation Yrotation Zrotation
											JOINT LeftHandRing4
											{
												OFFSET 6.145386 0.000000 0.000000
												CHANNELS 3 Xrotation Yrotation Zrotation
												End Site
												{
													OFFSET -3.671402 4.923981 -0.202372
												}
											}
										}
									}
								}
								JOINT LeftHandMiddle1
								{
									OFFSET 23.373947 0.000000 0.000001
									CHANNELS 3 Xrotation Yrotation Zrotation
									JOINT LeftHandMiddle2
									{
										OFFSET 6.996567 0.000000 0.000000
										CHANNELS 3 Xrotation Yrotation Zrotation
										JOINT LeftHandMiddle3
										{
											OFFSET 7.015945 0.000000 0.000000
											CHANNELS 3 Xrotation Yrotation Zrotation
											JOINT LeftHandMiddle4
											{
												OFFSET 7.721573 0.000000 0.000000
												CHANNELS 3 Xrotation Yrotation Zrotation
												End Site
												{
													OFFSET -4.651108 6.158463 0.251582
												}
											}
										}
									}
								}
								JOINT LeftHandIndex1
								{
									OFFSET 21.310577 -0.490082 6.209344
									CHANNELS 3 Xrotation Yrotation Zrotation
									JOINT LeftHandIndex2
									{
										OFFSET 7.536453 0.000000 0.000000
										CHANNELS 3 Xrotation Yrotation Zrotation
										JOINT LeftHandIndex3
										{
											OFFSET 7.512344 0.000000 0.000000
											CHANNELS 3 Xrotation Yrotation Zrotation
											JOINT LeftHandIndex4
											{
												OFFSET 10.212402 0.000000 0.000001
												CHANNELS 3 Xrotation Yrotation Zrotation
												End Site
												{
													OFFSET -5.180801 8.690506 1.388433
												}
											}
										}
									}
								}
							}
						}
					}
				}
				JOINT RightShoulder
				{
					OFFSET -17.399500 24.608795 1.168800
					CHANNELS 3 Xrotation Yrotation Zrotation
					JOINT RightArm
					{
						OFFSET -18.980635 5.765305 1.818600
						CHANNELS 3 Xrotation Yrotation Zrotation
						JOINT RightForeArm
						{
							OFFSET -49.290169 0.000000 0.000000
							CHANNELS 3 Xrotation Yrotation Zrotation
							JOINT RightHand
							{
								OFFSET -31.562012 0.000000 0.000000
								CHANNELS 3 Xrotation Yrotation Zrotation
								JOINT RightHandThumb1
								{
									OFFSET -6.133995 -4.388519 7.076070
									CHANNELS 3 Xrotation Yrotation Zrotation
									JOINT RightHandThumb2
									{
										OFFSET -6.037666 -3.485840 3.485847
										CHANNELS 3 Xrotation Yrotation Zrotation
										JOINT RightHandThumb3
										{
											OFFSET -6.496506 -3.750763 3.750761
											CHANNELS 3 Xrotation Yrotation Zrotation
											JOINT RightHandThumb4
											{
												OFFSET -5.616882 -3.242905 3.242910
												CHANNELS 3 Xrotation Yrotation Zrotation
												End Site
												{
													OFFSET 1.254608 7.132141 0.375429
												}
											}
										}
									}
								}
								JOINT RightHandIndex1
								{
									OFFSET -21.310577 -0.490082 6.209344
									CHANNELS 3 Xrotation Yrotation Zrotation
									JOINT RightHandIndex2
									{
										OFFSET -7.536453 0.000000 0.000000
										CHANNELS 3 Xrotation Yrotation Zrotation
										JOINT RightHandIndex3
										{
											OFFSET -7.512344 0.000000 0.000000
											CHANNELS 3 Xrotation Yrotation Zrotation
											JOINT RightHandIndex4
											{
												OFFSET -10.212402 0.000000 0.000001
												CHANNELS 3 Xrotation Yrotation Zrotation
												End Site
												{
													OFFSET 5.180801 8.690506 1.388433
												}
											}
										}
									}
								}
								JOINT RightHandMiddle1
								{
									OFFSET -23.373947 0.000000 0.000001
									CHANNELS 3 Xrotation Yrotation Zrotation
									JOINT RightHandMiddle2
									{
										OFFSET -6.996567 0.000000 0.000000
										CHANNELS 3 Xrotation Yrotation Zrotation
										JOINT RightHandMiddle3
										{
											OFFSET -7.015945 0.000000 0.000000
											CHANNELS 3 Xrotation Yrotation Zrotation
											JOINT RightHandMiddle4
											{
												OFFSET -7.721573 0.000000 0.000000
												CHANNELS 3 Xrotation Yrotation Zrotation
												End Site
												{
													OFFSET 4.651108 6.158463 0.251582
												}
											}
										}
									}
								}
								JOINT RightHandRing1
								{
									OFFSET -22.726120 -0.094986 -6.500475
									CHANNELS 3 Xrotation Yrotation Zrotation
									JOINT RightHandRing2
									{
										OFFSET -6.408615 0.000000 0.000000
										CHANNELS 3 Xrotation Yrotation Zrotation
										JOINT RightHandRing3
										{
											OFFSET -6.150223 0.000000 0.000000
											CHANNELS 3 Xrotation Yrotation Zrotation
											JOINT RightHandRing4
											{
												OFFSET -6.145386 0.000000 0.000000
												CHANNELS 3 Xrotation Yrotation Zrotation
												End Site
												{
													OFFSET 3.671402 4.923981 -0.202372
												}
											}
										}
									}
								}
								JOINT RightHandPinky1
								{
									OFFSET -18.920792 -0.453171 -11.426712
									CHANNELS 3 Xrotation Yrotation Zrotation
									JOINT RightHandPinky2
									{
										OFFSET -4.919586 0.000000 0.000000
										CHANNELS 3 Xrotation Yrotation Zrotation
										JOINT RightHandPinky3
										{
											OFFSET -5.233047 0.000000 0.000000
											CHANNELS 3 Xrotation Yrotation Zrotation
											JOINT RightHandPinky4
											{
												OFFSET -5.571716 0.000000 0.000000
												CHANNELS 3 Xrotation Yrotation Zrotation
												End Site
												{
													OFFSET 3.459808 4.342407 -0.466164
												}
											}
										}
									}
								}
							}
						}
					}
				}
			}
		}
	}
	JOINT LeftUpLeg
	{
		OFFSET 19.899099 -7.885101 -3.429500
		CHANNELS 3 Xrotation Yrotation Zrotation
		JOINT LeftLeg
		{
			OFFSET 1.745560 -36.997807 10.304700
			CHANNELS 3 Xrotation Yrotation Zrotation
			JOINT LeftFoot
			{
				OFFSET -1.745558 -29.803308 -13.615400
				CHANNELS 3 Xrotation Yrotation Zrotation
				JOINT LeftToeBase
				{
					OFFSET 1.181900 -18.539904 15.226099
					CHANNELS 3 Xrotation Yrotation Zrotation
					JOINT LeftToe_End
					{
						OFFSET -0.863701 1.402801 16.534700
						CHANNELS 3 Xrotation Yrotation Zrotation
						End Site
						{
							OFFSET 0.000000 16.616566 0.000000
						}
					}
				}
			}
		}
	}
	JOINT RightUpLeg
	{
		OFFSET -19.899099 -7.885101 -3.429500
		CHANNELS 3 Xrotation Yrotation Zrotation
		JOINT RightLeg
		{
			OFFSET -1.745560 -36.997807 10.304700
			CHANNELS 3 Xrotation Yrotation Zrotation
			JOINT RightFoot
			{
				OFFSET 1.745558 -29.803308 -13.615400
				CHANNELS 3 Xrotation Yrotation Zrotation
				JOINT RightToeBase
				{
					OFFSET -1.181900 -18.539904 15.226099
					CHANNELS 3 Xrotation Yrotation Zrotation
					JOINT RightToe_End
					{
						OFFSET 0.863701 1.402801 16.534700
						CHANNELS 3 Xrotation Yrotation Zrotation
						End Site
						{
							OFFSET 0.000000 16.616566 0.000000
						}
					}
				}
			}
		}
	}
}
MOTION
Frames: 4
Frame Time: 0.033333
-7.940863 62.192757 2.006390 -27.997012 -7.256653 -15.450871 14.360217 12.127307 -4.464158 1.361569 2.848195 0.144732 1.380797 2.822177 0.114127 3.479109 -1.932757 0.218954 8.764237 -20.296766 11.241912 -0.000000 -0.000001 0.000000 -1.714898 9.899177 0.739518 25.814896 24.343616 -19.738823 0.000016 -41.661767 0.000010 13.204656 -15.596039 -11.762214 -0.648123 -16.671211 -1.768308 7.416831 13.559469 3.778473 -10.277866 -8.028066 12.860623 -0.000000 0.000002 0.000003 2.217549 16.215972 -22.653567 0.579365 2.542131 -25.673814 0.579235 2.541867 -25.670832 0.000002 0.000002 -0.000004 0.933456 5.741948 -20.414025 0.491133 2.349923 -23.606363 0.332265 1.946674 -19.370495 -0.000003 0.000000 -0.000000 -0.686689 0.199387 -14.655407 0.595554 2.575495 -26.036340 0.077071 0.948181 -9.294150 0.000001 -0.000000 0.000004 0.332623 -2.971048 -1.456189 0.830593 3.008820 -30.858262 0.830588 3.008810 -30.858252 -0.000000 0.000003 0.000001 0.435588 3.742796 -3.195885 29.918930 -11.860028 12.614124 0.000018 44.824756 -0.000002 26.577309 4.660898 32.436681 3.998969 2.832316 -3.864432 7.802613 -15.416780 -4.481848 -8.394387 2.118174 -14.794806 0.000001 -0.000003 0.000001 0.387312 3.131514 0.644093 0.662452 -2.395999 30.906630 0.662445 -2.395996 30.906637 0.000000 0.000000 0.000002 -0.709912 0.247536 13.910229 0.475066 -2.051035 26.079653 0.061188 -0.753324 9.288681 0.000001 -0.000002 -0.000009 0.807582 -5.199893 19.769370 0.391783 -1.871425 23.646668 0.265333 -1.551037 19.413959 0.000000 0.000006 0.000002 1.996577 -15.634641 22.197399 0.462064 -2.024245 25.713755 0.462064 -2.024260 25.713746 -0.000000 -0.000000 0.000006 -46.355804 9.734007 -11.420548 31.808427 1.017726 0.506039 51.616648 7.386161 22.081442 -18.999583 0.000004 -0.000002 0.000001 -0.000002 -0.000000 16.073590 -19.114517 -13.234227 78.843189 8.976079 2.994394 -8.262270 0.578523 17.165380 -60.591189 0.003059 -0.073548 0.000000 0.000002 -0.000000 
-7.075207 65.433151 1.402554 -25.083048 -4.707476 -14.708836 13.531785 10.598872 -2.971887 1.471287 2.495140 0.357599 1.488178 2.461200 0.329452 3.344361 -1.733428 0.361096 6.627254 -18.055363 10.648646 -0.000000 -0.000001 -0.000000 -1.310965 7.421424 0.782108 24.773740 21.852926 -18.077378 0.000009 -46.347273 -0.000001 16.845733 -10.154517 -13.881086 -10.623537 -9.848974 -6.856245 6.957099 12.148180 7.366710 -11.050536 -6.130018 13.735798 -0.000001 0.000001 -0.000001 2.211554 15.571132 -24.238355 0.544733 2.468837 -24.881319 0.658558 2.700507 -27.404942 0.000004 0.000001 -0.000004 0.920299 5.655954 -21.208589 0.517588 2.409524 -24.243652 0.352642 2.003656 -19.961685 -0.000001 -0.000001 0.000003 -0.632533 0.421972 -14.695564 0.607004 2.598761 -26.289816 0.104067 1.100527 -10.804480 0.000000 0.000000 0.000008 0.921369 -3.351052 -2.408338 0.748943 2.867943 -29.265646 0.753153 2.875418 -29.349671 -0.000001 0.000005 0.000002 0.439645 5.229652 0.481253 30.692497 -13.245611 9.973091 0.000024 54.410714 -0.000006 24.408871 1.846248 32.300231 -0.602334 -2.615516 -2.348559 6.759414 -16.080767 -5.932987 -8.798400 1.874314 -15.106435 0.000003 0.000000 0.000001 0.674678 3.025339 2.028078 0.629822 -2.340669 30.116800 0.614748 -2.314530 29.746030 0.000001 -0.000003 -0.000001 -0.683104 -0.004888 14.454055 0.492101 -2.085396 26.551006 0.078834 -0.854238 10.546496 -0.000001 0.000002 -0.000001 0.764735 -5.040298 20.424303 0.417566 -1.929232 24.424311 0.284002 -1.602977 20.091961 -0.000003 0.000002 -0.000005 1.660759 -14.807140 23.370051 0.478088 -2.057259 26.164612 0.497750 -2.096682 26.706169 -0.000000 -0.000005 0.000010 -50.256675 7.300786 -8.846861 45.496471 6.756778 0.752799 43.204355 4.765196 21.740040 -17.842056 -0.000003 -0.000003 -0.000000 -0.000001 -0.000000 8.766339 -16.829415 -10.708895 75.423962 5.419106 3.340815 -1.330396 1.562294 15.218100 -59.123852 0.065679 -0.272327 -0.000001 -0.000001 -0.000000 
-5.683556 69.094734 0.236004 -22.200898 -2.358533 -14.118464 12.654054 8.989095 -1.494477 1.589318 2.128204 0.603107 1.603636 2.085172 0.577644 3.279199 -1.502294 0.522382 4.633379 -15.396805 10.085281 0.000000 0.000001 0.000000 -0.945898 5.675037 1.094849 23.655602 19.022323 -16.790236 0.000021 -54.991113 0.000008 16.538174 -6.188161 -14.036946 -21.323203 -2.335919 -10.713105 6.615431 10.418223 11.171031 -11.874926 -4.073115 14.712379 -0.000000 0.000001 -0.000001 2.245606 14.845358 -25.645569 0.494329 2.357238 -23.684511 0.733655 2.840510 -28.958602 -0.000001 0.000005 -0.000003 0.895838 5.559978 -21.830958 0.533283 2.444011 -24.614115 0.366728 2.041970 -20.360422 -0.000002 -0.000001 0.000005 -0.564508 0.649093 -14.527346 0.605961 2.596649 -26.266771 0.133682 1.245662 -12.250693 -0.000002 -0.000002 0.000001 1.506752 -3.766182 -3.238978 0.655708 2.695002 -27.344288 0.667739 2.718142 -27.599476 -0.000004 -0.000000 -0.000001 0.162136 7.175897 3.989242 31.091270 -14.775644 7.291175 0.000002 64.243345 0.000008 22.253878 -1.032224 31.819027 -6.017511 -8.167668 -1.389657 5.622952 -16.768026 -7.461533 -9.230418 1.630673 -15.451174 -0.000001 0.000003 0.000002 0.958098 2.909349 3.494046 0.593814 -2.277508 29.223217 0.564552 -2.224416 28.477973 -0.000003 -0.000003 0.000001 -0.646287 -0.278012 14.998317 0.508110 -2.117136 26.987783 0.100118 -0.961416 11.888150 0.000000 -0.000001 -0.000007 0.711107 -4.865555 21.064232 0.444115 -1.986541 25.200297 0.303803 -1.656136 20.788989 -0.000005 -0.000003 -0.000002 1.320338 -13.895679 24.554819 0.493799 -2.088816 26.597955 0.535167 -2.169441 27.711800 0.000000 0.000000 0.000004 -52.446072 3.604153 -5.760875 56.846561 9.601541 0.577823 32.422860 1.672932 18.117420 -16.665737 -0.000001 0.000003 0.000000 -0.000000 -0.000000 0.166764 -13.967396 -9.596266 70.448497 1.890981 3.938988 9.984624 2.951355 12.892586 -59.055366 -0.472647 1.204594 -0.000000 -0.000000 -0.000000 
-4.213390 72.816673 -1.285250 -19.084185 0.145944 -13.386361 11.857934 7.324966 -0.231623 1.689394 1.727741 0.812393 1.700927 1.677858 0.789905 3.119446 -1.245954 0.720864 2.391197 -12.636828 9.658408 -0.000000 -0.000000 0.000000 -0.501172 4.207258 0.271083 22.282116 14.900800 -17.093969 0.000034 -64.133618 0.000024 13.892866 -2.301486 -11.090801 -32.740355 5.434172 -13.318427 6.366433 8.321098 15.097503 -12.751575 -1.925191 15.808418 0.000001 0.000002 -0.000002 2.324436 14.033451 -26.903538 0.434222 2.215241 -22.177583 0.804293 2.964393 -30.353248 -0.000000 -0.000000 -0.000001 0.861453 5.453385 -22.311750 0.539942 2.458508 -24.769901 0.375474 2.065373 -20.604627 -0.000002 0.000001 0.000003 -0.487424 0.883237 -14.198739 0.594842 2.574036 -26.020449 0.165727 1.385003 -13.646563 0.000004 -0.000001 0.000009 2.083457 -4.200081 -3.984516 0.556727 2.494523 -25.158420 0.578100 2.539503 -25.645115 -0.000004 0.000003 0.000001 -0.349341 8.714159 7.066138 32.668573 -15.159171 6.455816 0.000025 73.602269 -0.000018 19.993591 -3.267419 31.253153 -12.449907 -13.577738 -1.073114 4.393182 -17.471457 -9.072115 -9.690700 1.387712 -15.829636 -0.000001 0.000001 -0.000002 1.234319 2.787626 5.041757 0.555279 -2.207300 28.238637 0.512788 -2.126357 27.115030 -0.000000 0.000001 -0.000003 -0.599478 -0.570405 15.548946 0.523468 -2.147022 27.400757 0.125475 -1.074891 13.316158 0.000002 0.000003 -0.000004 0.646898 -4.677010 21.696808 0.471710 -2.044117 25.985147 0.325077 -1.711099 21.512816 -0.000000 -0.000002 -0.000002 0.991336 -12.902235 25.760984 0.509440 -2.119797 27.024583 0.574844 -2.243312 28.742467 -0.000002 -0.000001 0.000007 -52.740108 -0.626044 -2.197779 64.132901 10.394289 0.112217 24.191601 -0.559236 12.790250 -15.439883 -0.000001 0.000001 0.000000 -0.000000 -0.000000 -7.313918 -12.323280 -7.206991 65.881853 -2.836771 3.773962 17.644032 5.085481 5.384239 -55.462304 -2.573109 4.421131 0.000000 0.000001 -0.000000 
